<mxfile host="app.diagrams.net" agent="Mozilla/5.0 (Macintosh; Intel Mac OS X 10_15_7) AppleWebKit/537.36 (KHTML, like Gecko) Chrome/140.0.0.0 Safari/537.36" version="28.2.4">
  <diagram name="Connected-Microservices-DFD" id="f0a9b8c7-d6e5-4f4a-8b3c-1d2e3f4a5b6c">
    <mxGraphModel dx="2652" dy="854" grid="1" gridSize="10" guides="1" tooltips="1" connect="1" arrows="1" fold="1" page="1" pageScale="1" pageWidth="1200" pageHeight="1400" math="0" shadow="0">
      <root>
        <mxCell id="0" />
        <mxCell id="1" parent="0" />
        <mxCell id="group-core-event" value="Speaker Interaction" style="group;dashed=1;strokeColor=#446280;fillColor=#e3effb;fontStyle=1" parent="1" vertex="1" connectable="0">
          <mxGeometry x="410" y="150" width="600" height="230" as="geometry" />
        </mxCell>
        <mxCell id="event-service" value="Event Service" style="rounded=0;whiteSpace=wrap;html=1;fillColor=#d5e8d4;strokeColor=#82b366;" parent="group-core-event" vertex="1">
          <mxGeometry x="100" y="150" width="120" height="60" as="geometry" />
        </mxCell>
        <mxCell id="events-db" value="Events DB" style="shape=cylinder3;whiteSpace=wrap;html=1;boundedLbl=1;backgroundOutline=1;size=15;fillColor=#ffe6cc;strokeColor=#d79b00;" parent="group-core-event" vertex="1">
          <mxGeometry x="310" y="150" width="60" height="60" as="geometry" />
        </mxCell>
        <mxCell id="speaker-service" value="Speaker Service" style="rounded=0;whiteSpace=wrap;html=1;fillColor=#d5e8d4;strokeColor=#82b366;" parent="group-core-event" vertex="1">
          <mxGeometry x="390" y="50" width="120" height="60" as="geometry" />
        </mxCell>
        <mxCell id="speakers-db" value="Speakers DB" style="shape=cylinder3;whiteSpace=wrap;html=1;boundedLbl=1;backgroundOutline=1;size=15;fillColor=#ffe6cc;strokeColor=#d79b00;" parent="group-core-event" vertex="1">
          <mxGeometry x="420" y="150" width="60" height="60" as="geometry" />
        </mxCell>
        <mxCell id="schedule-service" value="Schedule Service" style="rounded=0;whiteSpace=wrap;html=1;fillColor=#d5e8d4;strokeColor=#82b366;" parent="group-core-event" vertex="1">
          <mxGeometry x="100" y="50" width="120" height="60" as="geometry" />
        </mxCell>
        <mxCell id="schedules-db" value="Schedules DB" style="shape=cylinder3;whiteSpace=wrap;html=1;boundedLbl=1;backgroundOutline=1;size=15;fillColor=#ffe6cc;strokeColor=#d79b00;" parent="group-core-event" vertex="1">
          <mxGeometry x="310" y="50" width="60" height="60" as="geometry" />
        </mxCell>
        <mxCell id="db-read-write-schedule" value="Read/Write" style="edgeStyle=orthogonalEdgeStyle;rounded=0;orthogonalLoop=1;jettySize=auto;html=1;" parent="group-core-event" source="schedule-service" target="schedules-db" edge="1">
          <mxGeometry relative="1" as="geometry" />
        </mxCell>
        <mxCell id="group-user-interaction" value="User Interaction" style="group;dashed=1;strokeColor=#82665A;fillColor=#f5ebe2;fontStyle=1" parent="1" vertex="1" connectable="0">
          <mxGeometry x="420" y="770" width="600" height="230" as="geometry" />
        </mxCell>
        <mxCell id="booking-service" value="Booking Service" style="rounded=0;whiteSpace=wrap;html=1;fillColor=#d5e8d4;strokeColor=#82b366;" parent="group-user-interaction" vertex="1">
          <mxGeometry x="40" y="50" width="120" height="60" as="geometry" />
        </mxCell>
        <mxCell id="bookings-db" value="Bookings DB" style="shape=cylinder3;whiteSpace=wrap;html=1;boundedLbl=1;backgroundOutline=1;size=15;fillColor=#ffe6cc;strokeColor=#d79b00;" parent="group-user-interaction" vertex="1">
          <mxGeometry x="250" y="50" width="60" height="60" as="geometry" />
        </mxCell>
        <mxCell id="ticket-service" value="Ticket Service" style="rounded=0;whiteSpace=wrap;html=1;fillColor=#d5e8d4;strokeColor=#82b366;" parent="group-user-interaction" vertex="1">
          <mxGeometry x="440" y="50" width="120" height="60" as="geometry" />
        </mxCell>
        <mxCell id="tickets-db" value="Tickets DB" style="shape=cylinder3;whiteSpace=wrap;html=1;boundedLbl=1;backgroundOutline=1;size=15;fillColor=#ffe6cc;strokeColor=#d79b00;" parent="group-user-interaction" vertex="1">
          <mxGeometry x="470" y="150" width="60" height="60" as="geometry" />
        </mxCell>
        <mxCell id="feedback-service" value="Feedback Service" style="rounded=0;whiteSpace=wrap;html=1;fillColor=#d5e8d4;strokeColor=#82b366;" parent="group-user-interaction" vertex="1">
          <mxGeometry x="40" y="150" width="120" height="60" as="geometry" />
        </mxCell>
        <mxCell id="feedback-db" value="Feedback DB" style="shape=cylinder3;whiteSpace=wrap;html=1;boundedLbl=1;backgroundOutline=1;size=15;fillColor=#ffe6cc;strokeColor=#d79b00;" parent="group-user-interaction" vertex="1">
          <mxGeometry x="250" y="150" width="60" height="60" as="geometry" />
        </mxCell>
        <mxCell id="client" value="Client (Web/Mobile App)" style="shape=umlActor;verticalLabelPosition=bottom;verticalAlign=top;html=1;outlineConnect=0;" parent="1" vertex="1">
          <mxGeometry x="-120" y="550" width="30" height="60" as="geometry" />
        </mxCell>
        <mxCell id="IWpqsmb7LespxIZcmR7d-11" style="edgeStyle=orthogonalEdgeStyle;rounded=0;orthogonalLoop=1;jettySize=auto;html=1;entryX=0;entryY=0.5;entryDx=0;entryDy=0;" edge="1" parent="1" source="api-gateway" target="feedback-service">
          <mxGeometry relative="1" as="geometry">
            <Array as="points">
              <mxPoint x="90" y="950" />
            </Array>
          </mxGeometry>
        </mxCell>
        <mxCell id="IWpqsmb7LespxIZcmR7d-12" value="5. Provide Feedback of Event" style="edgeLabel;html=1;align=center;verticalAlign=middle;resizable=0;points=[];" vertex="1" connectable="0" parent="IWpqsmb7LespxIZcmR7d-11">
          <mxGeometry x="-0.3196" y="3" relative="1" as="geometry">
            <mxPoint as="offset" />
          </mxGeometry>
        </mxCell>
        <mxCell id="api-gateway" value="API Gateway" style="rounded=1;whiteSpace=wrap;html=1;fillColor=#dae8fc;strokeColor=#6c8ebf;fontStyle=1" parent="1" vertex="1">
          <mxGeometry x="20" y="545" width="140" height="70" as="geometry" />
        </mxCell>
        <mxCell id="auth-service" value="Auth Service" style="rounded=0;whiteSpace=wrap;html=1;fillColor=#d5e8d4;strokeColor=#82b366;" parent="1" vertex="1">
          <mxGeometry x="470" y="40" width="120" height="60" as="geometry" />
        </mxCell>
        <mxCell id="users-db" value="Users DB" style="shape=cylinder3;whiteSpace=wrap;html=1;boundedLbl=1;backgroundOutline=1;size=15;fillColor=#ffe6cc;strokeColor=#d79b00;" parent="1" vertex="1">
          <mxGeometry x="680" y="40" width="60" height="60" as="geometry" />
        </mxCell>
        <mxCell id="http-request" value="HTTP Request" style="edgeStyle=orthogonalEdgeStyle;rounded=0;orthogonalLoop=1;jettySize=auto;html=1;" parent="1" source="client" target="api-gateway" edge="1">
          <mxGeometry relative="1" as="geometry" />
        </mxCell>
        <mxCell id="http-response" value="HTTP Response" style="edgeStyle=orthogonalEdgeStyle;rounded=0;orthogonalLoop=1;jettySize=auto;html=1;" parent="1" source="api-gateway" target="client" edge="1">
          <mxGeometry relative="1" as="geometry" />
        </mxCell>
        <mxCell id="auth-request" value="1. Auth Request (User/Speaker)" style="edgeStyle=orthogonalEdgeStyle;rounded=0;orthogonalLoop=1;jettySize=auto;html=1;exitX=0.5;exitY=0;exitDx=0;exitDy=0;entryX=0;entryY=0.5;entryDx=0;entryDy=0;" parent="1" source="api-gateway" target="auth-service" edge="1">
          <mxGeometry x="-0.28" relative="1" as="geometry">
            <Array as="points">
              <mxPoint x="90" y="70" />
            </Array>
            <mxPoint x="230" y="460" as="sourcePoint" />
            <mxPoint x="410" y="45" as="targetPoint" />
            <mxPoint as="offset" />
          </mxGeometry>
        </mxCell>
        <mxCell id="db-read-write-user" value="Read/Write" style="edgeStyle=orthogonalEdgeStyle;rounded=0;orthogonalLoop=1;jettySize=auto;html=1;" parent="1" source="auth-service" target="users-db" edge="1">
          <mxGeometry relative="1" as="geometry" />
        </mxCell>
        <mxCell id="db-read-write-event" value="Read/Write" style="edgeStyle=orthogonalEdgeStyle;rounded=0;orthogonalLoop=1;jettySize=auto;html=1;" parent="1" source="event-service" target="events-db" edge="1">
          <mxGeometry relative="1" as="geometry" />
        </mxCell>
        <mxCell id="db-read-write-booking" value="Read/Write" style="edgeStyle=orthogonalEdgeStyle;rounded=0;orthogonalLoop=1;jettySize=auto;html=1;" parent="1" source="booking-service" target="bookings-db" edge="1">
          <mxGeometry relative="1" as="geometry" />
        </mxCell>
        <mxCell id="db-read-write-ticket" value="Read/Write" style="edgeStyle=orthogonalEdgeStyle;rounded=0;orthogonalLoop=1;jettySize=auto;html=1;" parent="1" source="ticket-service" target="tickets-db" edge="1">
          <mxGeometry relative="1" as="geometry" />
        </mxCell>
        <mxCell id="db-read-write-feedback" value="Read/Write" style="edgeStyle=orthogonalEdgeStyle;rounded=0;orthogonalLoop=1;jettySize=auto;html=1;" parent="1" source="feedback-service" target="feedback-db" edge="1">
          <mxGeometry relative="1" as="geometry" />
        </mxCell>
        <mxCell id="db-read-write-speaker" value="Read/Write" style="edgeStyle=orthogonalEdgeStyle;rounded=0;orthogonalLoop=1;jettySize=auto;html=1;" parent="1" source="speaker-service" target="speakers-db" edge="1">
          <mxGeometry relative="1" as="geometry" />
        </mxCell>
        <mxCell id="IWpqsmb7LespxIZcmR7d-7" style="edgeStyle=orthogonalEdgeStyle;rounded=0;orthogonalLoop=1;jettySize=auto;html=1;entryX=1;entryY=0.5;entryDx=0;entryDy=0;" edge="1" parent="1" source="message-bus" target="notification-service">
          <mxGeometry relative="1" as="geometry">
            <Array as="points">
              <mxPoint x="800" y="1050" />
            </Array>
          </mxGeometry>
        </mxCell>
        <mxCell id="IWpqsmb7LespxIZcmR7d-8" value="4. Consume Events" style="edgeLabel;html=1;align=center;verticalAlign=middle;resizable=0;points=[];" vertex="1" connectable="0" parent="IWpqsmb7LespxIZcmR7d-7">
          <mxGeometry x="0.5156" y="2" relative="1" as="geometry">
            <mxPoint y="-2" as="offset" />
          </mxGeometry>
        </mxCell>
        <mxCell id="message-bus" value="Asynchronous Message Bus" style="rounded=1;whiteSpace=wrap;html=1;fillColor=#f8cecc;strokeColor=#b85450;fontStyle=1" parent="1" vertex="1">
          <mxGeometry x="420" y="530" width="600" height="70" as="geometry" />
        </mxCell>
        <mxCell id="notification-service" value="Notification Service" style="rounded=0;whiteSpace=wrap;html=1;fillColor=#d5e8d4;strokeColor=#82b366;" parent="1" vertex="1">
          <mxGeometry x="290" y="1020" width="120" height="60" as="geometry" />
        </mxCell>
        <mxCell id="sends-email" value="4. Send Email / Push" style="edgeStyle=orthogonalEdgeStyle;rounded=0;orthogonalLoop=1;jettySize=auto;html=1;exitX=0;exitY=0.5;exitDx=0;exitDy=0;" parent="1" source="notification-service" edge="1" target="client">
          <mxGeometry x="0.0004" relative="1" as="geometry">
            <mxPoint x="280" y="1050" as="targetPoint" />
            <mxPoint as="offset" />
          </mxGeometry>
        </mxCell>
        <mxCell id="api-to-event" value="2a. GET Event" style="edgeStyle=orthogonalEdgeStyle;rounded=0;orthogonalLoop=1;jettySize=auto;html=1;" parent="1" source="api-gateway" target="event-service" edge="1">
          <mxGeometry relative="1" as="geometry">
            <Array as="points">
              <mxPoint x="330" y="590" />
              <mxPoint x="330" y="330" />
            </Array>
          </mxGeometry>
        </mxCell>
        <mxCell id="api-to-schedule" value="2b. GET Schedule" style="edgeStyle=orthogonalEdgeStyle;rounded=0;orthogonalLoop=1;jettySize=auto;html=1;" parent="1" source="api-gateway" target="schedule-service" edge="1">
          <mxGeometry x="0.3455" relative="1" as="geometry">
            <Array as="points">
              <mxPoint x="270" y="570" />
              <mxPoint x="270" y="230" />
            </Array>
            <mxPoint as="offset" />
          </mxGeometry>
        </mxCell>
        <mxCell id="api-to-speaker" value="2c. GET Speaker Details (User/Speaker)" style="edgeStyle=orthogonalEdgeStyle;rounded=0;orthogonalLoop=1;jettySize=auto;html=1;" parent="1" source="api-gateway" target="speaker-service" edge="1">
          <mxGeometry x="-0.115" y="10" relative="1" as="geometry">
            <Array as="points">
              <mxPoint x="190" y="560" />
              <mxPoint x="190" y="180" />
              <mxPoint x="860" y="180" />
            </Array>
            <mxPoint as="offset" />
          </mxGeometry>
        </mxCell>
        <mxCell id="api-to-booking" value="3. POST Booking" style="edgeStyle=orthogonalEdgeStyle;rounded=0;orthogonalLoop=1;jettySize=auto;html=1;" parent="1" source="api-gateway" target="booking-service" edge="1">
          <mxGeometry relative="1" as="geometry">
            <Array as="points">
              <mxPoint x="330" y="600" />
              <mxPoint x="330" y="850" />
            </Array>
          </mxGeometry>
        </mxCell>
        <mxCell id="IWpqsmb7LespxIZcmR7d-1" style="edgeStyle=orthogonalEdgeStyle;rounded=0;orthogonalLoop=1;jettySize=auto;html=1;" edge="1" parent="1" source="event-service" target="message-bus">
          <mxGeometry relative="1" as="geometry">
            <Array as="points">
              <mxPoint x="510" y="530" />
              <mxPoint x="510" y="530" />
            </Array>
          </mxGeometry>
        </mxCell>
        <mxCell id="IWpqsmb7LespxIZcmR7d-2" value="2d. Publish Event Status Change" style="edgeLabel;html=1;align=center;verticalAlign=middle;resizable=0;points=[];" vertex="1" connectable="0" parent="IWpqsmb7LespxIZcmR7d-1">
          <mxGeometry x="0.0263" y="2" relative="1" as="geometry">
            <mxPoint as="offset" />
          </mxGeometry>
        </mxCell>
        <mxCell id="IWpqsmb7LespxIZcmR7d-3" value="" style="endArrow=classic;html=1;rounded=0;entryX=0.5;entryY=0;entryDx=0;entryDy=0;exitX=0.833;exitY=0.993;exitDx=0;exitDy=0;exitPerimeter=0;" edge="1" parent="1" source="message-bus" target="ticket-service">
          <mxGeometry width="50" height="50" relative="1" as="geometry">
            <mxPoint x="920" y="590" as="sourcePoint" />
            <mxPoint x="560" y="800" as="targetPoint" />
          </mxGeometry>
        </mxCell>
        <mxCell id="IWpqsmb7LespxIZcmR7d-4" value="3a. Consume&amp;nbsp;&lt;b style=&quot;--un-translate-z: 0; --un-pan-x: ; --un-pan-y: ; --un-pinch-zoom: ; --un-scroll-snap-strictness: proximity; --un-ordinal: ; --un-slashed-zero: ; --un-numeric-figure: ; --un-numeric-spacing: ; --un-numeric-fraction: ; --un-border-spacing-x: 0; --un-border-spacing-y: 0; --un-ring-offset-shadow: 0 0 rgb(0 0 0 / 0); --un-ring-shadow: 0 0 rgb(0 0 0 / 0); --un-shadow-inset: ; --un-shadow: 0 0 rgb(0 0 0 / 0); --un-ring-inset: ; --un-ring-offset-width: 0px; --un-ring-offset-color: light-dark(#fff, #aNaNaN); --un-ring-width: 0px; --un-ring-color: rgb(147 197 253 / .5); --un-blur: ; --un-brightness: ; --un-contrast: ; --un-drop-shadow: ; --un-grayscale: ; --un-hue-rotate: ; --un-invert: ; --un-saturate: ; --un-sepia: ; --un-backdrop-blur: ; --un-backdrop-brightness: ; --un-backdrop-contrast: ; --un-backdrop-grayscale: ; --un-backdrop-hue-rotate: ; --un-backdrop-invert: ; --un-backdrop-opacity: ; --un-backdrop-saturate: ; --un-backdrop-sepia: ;&quot;&gt;BookingConfirmed&lt;/b&gt;" style="edgeLabel;html=1;align=center;verticalAlign=middle;resizable=0;points=[];" vertex="1" connectable="0" parent="IWpqsmb7LespxIZcmR7d-3">
          <mxGeometry x="0.1058" y="1" relative="1" as="geometry">
            <mxPoint as="offset" />
          </mxGeometry>
        </mxCell>
        <mxCell id="IWpqsmb7LespxIZcmR7d-5" style="edgeStyle=orthogonalEdgeStyle;rounded=0;orthogonalLoop=1;jettySize=auto;html=1;entryX=0.167;entryY=0.995;entryDx=0;entryDy=0;entryPerimeter=0;" edge="1" parent="1" source="booking-service" target="message-bus">
          <mxGeometry relative="1" as="geometry" />
        </mxCell>
        <mxCell id="IWpqsmb7LespxIZcmR7d-6" value="3b. Publish&amp;nbsp;&lt;b style=&quot;--un-translate-z: 0; --un-pan-x: ; --un-pan-y: ; --un-pinch-zoom: ; --un-scroll-snap-strictness: proximity; --un-ordinal: ; --un-slashed-zero: ; --un-numeric-figure: ; --un-numeric-spacing: ; --un-numeric-fraction: ; --un-border-spacing-x: 0; --un-border-spacing-y: 0; --un-ring-offset-shadow: 0 0 rgb(0 0 0 / 0); --un-ring-shadow: 0 0 rgb(0 0 0 / 0); --un-shadow-inset: ; --un-shadow: 0 0 rgb(0 0 0 / 0); --un-ring-inset: ; --un-ring-offset-width: 0px; --un-ring-offset-color: light-dark(#fff, #aNaNaN); --un-ring-width: 0px; --un-ring-color: rgb(147 197 253 / .5); --un-blur: ; --un-brightness: ; --un-contrast: ; --un-drop-shadow: ; --un-grayscale: ; --un-hue-rotate: ; --un-invert: ; --un-saturate: ; --un-sepia: ; --un-backdrop-blur: ; --un-backdrop-brightness: ; --un-backdrop-contrast: ; --un-backdrop-grayscale: ; --un-backdrop-hue-rotate: ; --un-backdrop-invert: ; --un-backdrop-opacity: ; --un-backdrop-saturate: ; --un-backdrop-sepia: ;&quot;&gt;BookingConfirmed&lt;/b&gt;&amp;nbsp;Event" style="edgeLabel;html=1;align=center;verticalAlign=middle;resizable=0;points=[];" vertex="1" connectable="0" parent="IWpqsmb7LespxIZcmR7d-5">
          <mxGeometry x="0.22" y="1" relative="1" as="geometry">
            <mxPoint as="offset" />
          </mxGeometry>
        </mxCell>
      </root>
    </mxGraphModel>
  </diagram>
</mxfile>
